<svg width="44" height="44" viewBox="0 0 44 44" fill="none" xmlns="http://www.w3.org/2000/svg">
<path d="M22 0C9.86106 0 0 9.86107 0 22C0 34.1389 9.86106 44 22 44C34.1389 44 44 34.1389 44 22C44 9.86107 34.1389 0 22 0ZM22 1.91304C33.1051 1.91304 42.087 10.8949 42.087 22C42.087 33.105 33.1051 42.087 22 42.087C10.8949 42.087 1.91304 33.105 1.91304 22C1.91304 10.8949 10.8949 1.91304 22 1.91304ZM30.6928 11.5119C30.0385 11.5119 29.3034 11.6634 28.4434 11.9733C27.1081 12.4545 11.4024 19.1229 9.61566 19.8815C8.59409 20.3157 6.69192 21.1235 6.69192 23.0499C6.69192 24.3269 7.44017 25.2402 8.91321 25.7663C9.70521 26.0485 11.5863 26.6186 12.6776 26.919C13.1406 27.0462 13.6326 27.1114 14.1386 27.1114C15.1286 27.1114 16.1249 26.8647 16.9054 26.4295C16.8987 26.5902 16.9031 26.7526 16.9222 26.9153C17.0399 27.9196 17.6592 28.8642 18.5774 29.4429C19.1781 29.8217 24.0846 33.1092 24.8173 33.6315C25.8465 34.367 26.9843 34.7561 28.1053 34.7561C30.2479 34.7561 30.9667 32.5438 31.313 31.4811C31.8152 29.9383 33.6956 17.3916 33.9079 15.1792C34.0524 13.6631 33.4205 12.4147 32.2172 11.8388C31.7667 11.6217 31.2523 11.5119 30.6928 11.5119ZM30.6928 13.4249C30.9558 13.4249 31.1906 13.4684 31.3896 13.565C31.842 13.7822 32.0722 14.2662 32.0024 14.998C31.7709 17.4113 29.8951 29.6608 29.4952 30.8889C29.1528 31.9392 28.7921 32.8431 28.1053 32.8431C27.4185 32.8431 26.6682 32.6023 25.9288 32.0734C25.1894 31.5454 20.2795 28.2527 19.5975 27.8232C18.9997 27.4463 18.367 26.5069 19.2575 25.5982C19.9911 24.8502 25.5562 19.4489 26.0316 18.9735C26.3855 18.6186 26.22 18.1907 25.8728 18.1907C25.7532 18.1907 25.61 18.2411 25.4618 18.3626C24.8802 18.838 16.7724 24.2634 16.0703 24.6996C15.6054 24.9884 14.8856 25.1965 14.1386 25.1965C13.8201 25.1965 13.4976 25.1583 13.1877 25.0732C12.1087 24.7757 10.2828 24.2217 9.55775 23.9635C8.86044 23.7148 8.60683 23.4765 8.60683 23.0499C8.60683 22.4435 9.46281 22.0249 10.3648 21.6413C11.3175 21.2367 27.8023 14.2363 29.0917 13.7724C29.6886 13.5562 30.2346 13.4249 30.6928 13.4249Z" fill="#F1F1F1"/>
</svg>
